<svg width="218" height="298" viewBox="0 0 218 298" fill="none" xmlns="http://www.w3.org/2000/svg">
<path opacity="0.9" d="M26.2048 87.877C15.7238 149.549 76.9523 143.487 81.2916 192.8C87.667 264.673 141.864 263.483 165.574 234.293C211.37 177.938 214.33 47.3406 125.53 32.8792C93.8088 27.6953 33.4258 45.3605 26.2048 87.877Z" fill="#FF8990"/>
<g clip-path="url(#clip0_131_157)">
<path d="M74.61 229.54C71.92 251.17 31.76 257.91 30.42 232.31C29.13 207.49 47.87 188.03 66.42 174.43C84.5 161.16 105.75 151.14 121.42 134.83C136.16 119.48 140.67 96.08 130.71 76.7C121.71 59.22 98.16 52.4 83.19 66.82C68.22 81.24 67.88 110.82 79.51 127.43C90.94 143.73 111.9 150.61 129.6 157.61C148.3 165.02 170.42 173.25 180.99 191.68C191.69 210.32 188.22 242.68 167.47 253.3C150.47 261.99 129.36 252.03 121.3 235.72C118.993 231.033 117.779 225.884 117.75 220.66C117.75 219.94 117.67 216.66 116.48 216.66C115.29 216.66 115.34 220.12 115.35 220.66C115.55 240.51 127.04 259.86 147.61 263.81C151.94 264.676 156.403 264.621 160.71 263.649C165.017 262.678 169.071 260.811 172.61 258.17C181.56 251.35 185.9 240.24 187.77 229.47C191.83 206.05 186.54 182.68 166.83 168.13C149.15 155.13 127.15 149.71 107.52 140.42C88.43 131.42 71.11 116.99 74.52 93.71C76.18 82.39 83.15 71.79 94.37 68.16C99.0534 66.7031 104.029 66.4554 108.834 67.4398C113.639 68.4242 118.117 70.6088 121.85 73.79C126.298 77.7141 129.651 82.7266 131.579 88.3362C133.508 93.9458 133.945 99.9602 132.85 105.79C130.85 115.73 124.25 123.97 116.97 130.66C99.59 146.66 77.7 156.74 59.37 171.5C40.37 186.84 27.27 207.17 28 232.35C28.31 243.02 32.6 253.88 44 256.46C53.69 258.65 64.89 254.33 71.16 246.77C74.2558 242.989 76.1966 238.396 76.75 233.54C76.9 232.34 77.35 228.95 76.22 228.08C75.09 227.21 74.77 228.19 74.61 229.54Z" fill="#30293D"/>
<path d="M97.75 99.81L94.85 108.66C94.43 109.89 93.72 114.5 95.25 115.35L100.7 118.35C102.13 119.15 103.19 111.6 101.48 110.65L96.03 107.65L96.43 114.35L99.37 105.54C99.966 103.709 100.004 101.743 99.48 99.89C99.03 98.56 98.28 98.37 97.78 99.89L97.75 99.81Z" fill="#30293D"/>
</g>
<defs>
<clipPath id="clip0_131_157">
<rect width="161.05" height="205.44" fill="white" transform="translate(28 59)"/>
</clipPath>
</defs>
</svg>
